<svg id="user" width="21" height="21" viewBox="0 0 21 21" fill="none" xmlns="http://www.w3.org/2000/svg">
<path fill-rule="evenodd" clip-rule="evenodd" d="M19.328 20.5C19.328 20.5 20.9947 20.5 20.9947 18.8333C20.9947 17.1667 19.328 12.1667 10.9947 12.1667C2.66136 12.1667 0.99469 17.1667 0.99469 18.8333C0.99469 20.5 2.66136 20.5 2.66136 20.5H19.328ZM2.66969 18.9267V18.9233V18.9267ZM2.69802 18.8333H19.2914C19.2992 18.8324 19.3069 18.8313 19.3147 18.83L19.328 18.8267C19.3264 18.4167 19.0714 17.1833 17.9414 16.0533C16.8547 14.9667 14.8097 13.8333 10.9947 13.8333C7.17802 13.8333 5.13469 14.9667 4.04802 16.0533C2.91802 17.1833 2.66469 18.4167 2.66136 18.8267C2.67355 18.829 2.68578 18.8312 2.69802 18.8333ZM19.3214 18.9267V18.9233V18.9267ZM10.9947 8.83333C11.8787 8.83333 12.7266 8.48214 13.3517 7.85702C13.9768 7.2319 14.328 6.38405 14.328 5.5C14.328 4.61594 13.9768 3.7681 13.3517 3.14298C12.7266 2.51786 11.8787 2.16667 10.9947 2.16667C10.1106 2.16667 9.26279 2.51786 8.63767 3.14298C8.01255 3.7681 7.66136 4.61594 7.66136 5.5C7.66136 6.38405 8.01255 7.2319 8.63767 7.85702C9.26279 8.48214 10.1106 8.83333 10.9947 8.83333ZM15.9947 5.5C15.9947 6.82608 15.4679 8.09785 14.5302 9.03553C13.5925 9.97322 12.3208 10.5 10.9947 10.5C9.66861 10.5 8.39684 9.97322 7.45916 9.03553C6.52147 8.09785 5.99469 6.82608 5.99469 5.5C5.99469 4.17392 6.52147 2.90215 7.45916 1.96447C8.39684 1.02678 9.66861 0.5 10.9947 0.5C12.3208 0.5 13.5925 1.02678 14.5302 1.96447C15.4679 2.90215 15.9947 4.17392 15.9947 5.5Z" fill="#231F20"></path>
</svg>